<?xml version="1.0" standalone="no"?>
<!DOCTYPE svg PUBLIC "-//W3C//DTD SVG 20010904//EN"
 "http://www.w3.org/TR/2001/REC-SVG-20010904/DTD/svg10.dtd">
<svg version="1.0" xmlns="http://www.w3.org/2000/svg"
 width="465.000000pt" height="465.000000pt" viewBox="0 0 465.000000 465.000000"
 preserveAspectRatio="xMidYMid meet">
<metadata>
Created by potrace 1.11, written by Peter Selinger 2001-2013
</metadata>
<g transform="translate(0.000000,465.000000) scale(0.100000,-0.100000)"
fill="#000000" stroke="none">
<path d="M2275 4361 c-6 -5 -70 -44 -143 -86 -95 -55 -132 -81 -128 -92 10
-25 217 -323 225 -323 4 0 28 44 54 98 80 170 157 334 157 337 0 7 -129 75
-142 75 -8 0 -18 -4 -23 -9z"/>
<path d="M2424 4124 c-36 -77 -84 -179 -107 -229 -22 -49 -43 -92 -45 -95 -2
-3 -12 5 -22 18 -19 23 -19 23 -30 2 -6 -11 -14 -20 -19 -20 -5 0 -26 26 -47
58 -206 304 -216 316 -240 293 -5 -5 -63 -41 -129 -79 -66 -38 -203 -118 -305
-177 -102 -59 -237 -138 -300 -175 -63 -37 -198 -116 -300 -175 -102 -59 -223
-130 -270 -157 -47 -27 -91 -57 -97 -66 -15 -19 -18 -159 -4 -194 5 -13 101
-134 213 -269 112 -136 307 -373 433 -527 127 -154 233 -277 237 -274 3 4 33
66 66 137 33 72 97 209 142 305 153 326 232 495 295 630 34 74 90 193 124 264
33 70 61 129 61 131 0 1 28 60 61 131 l61 128 19 -22 18 -23 13 20 c7 12 16
21 19 21 4 0 39 -48 79 -107 77 -113 155 -228 225 -328 23 -33 81 -118 130
-190 118 -173 119 -174 127 -175 3 0 79 134 168 298 90 163 189 345 221 404
33 58 59 111 59 116 0 8 -134 89 -668 399 -50 29 -99 56 -107 59 -11 5 -31
-29 -81 -132z"/>
<path d="M3235 3588 c-54 -101 -157 -288 -227 -417 -70 -129 -128 -239 -128
-244 0 -6 -11 -1 -24 12 l-23 22 -16 -23 c-11 -15 -19 -19 -24 -12 -4 6 -48
69 -96 140 -401 586 -448 654 -456 654 -4 0 -35 -60 -69 -132 -74 -161 -210
-452 -286 -612 -31 -65 -56 -119 -56 -121 0 -2 -34 -73 -75 -160 -41 -86 -75
-158 -75 -160 0 -1 -34 -73 -75 -160 -41 -86 -75 -158 -75 -160 0 -4 -91 -195
-97 -204 -2 -2 -12 4 -24 14 -17 17 -22 17 -29 5 -6 -8 -10 -18 -10 -22 0 -5
-4 -8 -9 -8 -9 0 -65 68 -451 540 -339 414 -394 479 -402 474 -4 -3 -8 -403
-8 -890 0 -874 0 -884 20 -902 11 -9 100 -63 197 -119 l178 -103 19 38 c11 20
52 107 92 192 39 85 111 238 159 340 48 102 109 235 137 295 28 61 52 112 54
114 2 2 13 -4 25 -14 17 -17 22 -17 29 -5 6 8 10 18 10 23 0 21 25 -4 116
-115 255 -314 406 -493 417 -496 7 -1 28 28 47 65 19 38 91 172 160 298 70
127 200 365 289 530 244 448 343 630 347 634 2 2 13 -4 24 -14 20 -18 21 -18
36 4 17 24 -4 54 524 -718 80 -116 170 -247 200 -291 30 -43 89 -129 130 -190
67 -99 76 -108 88 -93 12 16 36 60 132 238 15 28 59 109 98 181 l72 130 0 592
0 591 -72 42 c-40 23 -93 54 -118 69 -79 48 -550 321 -563 326 -8 3 -49 -63
-112 -178z"/>
<path d="M2830 2850 c0 -5 -49 -98 -109 -207 -99 -181 -172 -316 -549 -1008
-193 -356 -176 -331 -203 -299 -11 14 -14 13 -30 -7 -18 -25 0 -45 -406 450
-65 79 -123 146 -130 148 -6 2 -15 -6 -19 -19 -3 -12 -40 -92 -80 -176 -41
-85 -74 -156 -74 -157 0 -2 -34 -74 -75 -160 -41 -87 -75 -158 -75 -160 0 -2
-29 -65 -65 -140 -36 -75 -65 -139 -65 -143 0 -4 44 -32 98 -63 53 -31 188
-109 300 -174 112 -64 204 -116 206 -114 1 2 46 83 98 179 52 96 135 248 183
338 l89 162 21 -20 22 -21 15 23 c9 13 18 21 20 18 3 -3 139 -169 303 -370
165 -201 326 -398 358 -437 l59 -73 47 27 c25 14 56 32 69 40 13 8 114 67 225
132 111 65 224 131 251 147 53 32 58 41 313 514 64 118 120 219 124 225 6 6
15 0 25 -14 l16 -23 18 26 17 27 53 -78 c108 -158 163 -238 167 -242 1 -2 14
2 28 9 l25 13 0 401 0 401 -101 -185 c-56 -102 -117 -214 -136 -248 l-35 -64
-23 22 -23 22 -7 -22 c-4 -11 -12 -19 -18 -17 -10 3 -82 105 -271 382 -41 61
-124 182 -185 270 -60 88 -136 198 -168 245 -234 342 -295 430 -299 430 -2 0
-4 -4 -4 -10z"/>
<path d="M3728 1343 c-183 -333 -259 -475 -256 -479 6 -6 502 284 512 299 6 9
-18 53 -79 143 -48 71 -93 135 -100 142 -10 11 -25 -9 -77 -105z"/>
<path d="M1855 1053 c-59 -109 -139 -255 -176 -324 -38 -69 -69 -130 -69 -136
0 -6 57 -44 128 -85 333 -196 561 -328 567 -328 9 0 337 190 352 204 9 8 -4
31 -54 91 -295 361 -636 775 -638 775 -2 0 -51 -89 -110 -197z"/>
</g>
</svg>
